<mxfile host="app.diagrams.net" agent="Mozilla/5.0 (Macintosh; Intel Mac OS X 10_15_7) AppleWebKit/537.36 (KHTML, like Gecko) Chrome/131.0.0.0 Safari/537.36" version="24.9.0">
  <diagram id="C5RBs43oDa-KdzZeNtuy" name="Page-1">
    <mxGraphModel dx="3540" dy="2340" grid="1" gridSize="11" guides="1" tooltips="1" connect="1" arrows="1" fold="1" page="1" pageScale="1" pageWidth="3000" pageHeight="3000" background="none" math="0" shadow="0">
      <root>
        <mxCell id="WIyWlLk6GJQsqaUBKTNV-0" />
        <mxCell id="WIyWlLk6GJQsqaUBKTNV-1" parent="WIyWlLk6GJQsqaUBKTNV-0" />
        <mxCell id="Td7zW-o2DTwXKr2sYSDe-17" style="edgeStyle=orthogonalEdgeStyle;rounded=0;orthogonalLoop=1;jettySize=auto;html=1;exitX=0.499;exitY=0.851;exitDx=0;exitDy=0;exitPerimeter=0;endArrow=none;endFill=0;strokeWidth=5;" parent="WIyWlLk6GJQsqaUBKTNV-1" source="Td7zW-o2DTwXKr2sYSDe-0" edge="1">
          <mxGeometry relative="1" as="geometry">
            <mxPoint x="972.8399999999999" y="348.65" as="sourcePoint" />
            <mxPoint x="972.6099999999994" y="502.25" as="targetPoint" />
            <Array as="points">
              <mxPoint x="973" y="398" />
            </Array>
          </mxGeometry>
        </mxCell>
        <mxCell id="Td7zW-o2DTwXKr2sYSDe-0" value="&lt;font style=&quot;font-size: 26px;&quot;&gt;Dockerfile.dev&lt;/font&gt;" style="shape=document;whiteSpace=wrap;html=1;boundedLbl=1;sketch=1;curveFitting=1;jiggle=2;" parent="WIyWlLk6GJQsqaUBKTNV-1" vertex="1">
          <mxGeometry x="884.81" y="286" width="215.19" height="132" as="geometry" />
        </mxCell>
        <mxCell id="Td7zW-o2DTwXKr2sYSDe-1" value="&lt;font style=&quot;font-size: 26px;&quot;&gt;skaffold.yaml&lt;/font&gt;" style="shape=document;whiteSpace=wrap;html=1;boundedLbl=1;sketch=1;curveFitting=1;jiggle=2;" parent="WIyWlLk6GJQsqaUBKTNV-1" vertex="1">
          <mxGeometry x="1165.81" y="286" width="198.19" height="121" as="geometry" />
        </mxCell>
        <mxCell id="Td7zW-o2DTwXKr2sYSDe-88" style="edgeStyle=orthogonalEdgeStyle;rounded=0;orthogonalLoop=1;jettySize=auto;html=1;exitX=0.998;exitY=0.199;exitDx=0;exitDy=0;exitPerimeter=0;entryX=0.623;entryY=-0.002;entryDx=0;entryDy=0;entryPerimeter=0;strokeWidth=5;" parent="WIyWlLk6GJQsqaUBKTNV-1" source="Td7zW-o2DTwXKr2sYSDe-2" target="Td7zW-o2DTwXKr2sYSDe-20" edge="1">
          <mxGeometry relative="1" as="geometry">
            <mxPoint x="1721" y="755" as="targetPoint" />
            <Array as="points">
              <mxPoint x="1535" y="310" />
              <mxPoint x="1535" y="330" />
              <mxPoint x="1721" y="330" />
              <mxPoint x="1721" y="898" />
            </Array>
            <mxPoint x="1621.81" y="315.13" as="sourcePoint" />
          </mxGeometry>
        </mxCell>
        <mxCell id="Td7zW-o2DTwXKr2sYSDe-2" value="&lt;font style=&quot;font-size: 26px;&quot;&gt;k8s folder&lt;/font&gt;" style="shape=document;whiteSpace=wrap;html=1;boundedLbl=1;sketch=1;curveFitting=1;jiggle=2;" parent="WIyWlLk6GJQsqaUBKTNV-1" vertex="1">
          <mxGeometry x="1442.52" y="286" width="185.48" height="121" as="geometry" />
        </mxCell>
        <mxCell id="Td7zW-o2DTwXKr2sYSDe-5" style="edgeStyle=orthogonalEdgeStyle;rounded=0;orthogonalLoop=1;jettySize=auto;html=1;endArrow=none;endFill=0;exitX=1.012;exitY=0.278;exitDx=0;exitDy=0;exitPerimeter=0;entryX=-0.003;entryY=0.274;entryDx=0;entryDy=0;entryPerimeter=0;strokeWidth=5;" parent="WIyWlLk6GJQsqaUBKTNV-1" edge="1">
          <mxGeometry relative="1" as="geometry">
            <mxPoint x="1165.8119999999997" y="330.0025" as="targetPoint" />
            <mxPoint x="1103.702" y="330.4275" as="sourcePoint" />
            <Array as="points">
              <mxPoint x="1100.8799999999999" y="330.02" />
            </Array>
          </mxGeometry>
        </mxCell>
        <mxCell id="Td7zW-o2DTwXKr2sYSDe-6" style="edgeStyle=orthogonalEdgeStyle;rounded=0;orthogonalLoop=1;jettySize=auto;html=1;endArrow=none;endFill=0;strokeWidth=5;" parent="WIyWlLk6GJQsqaUBKTNV-1" edge="1">
          <mxGeometry relative="1" as="geometry">
            <mxPoint x="1363.9999999999998" y="330" as="sourcePoint" />
            <mxPoint x="1441" y="330" as="targetPoint" />
          </mxGeometry>
        </mxCell>
        <mxCell id="Td7zW-o2DTwXKr2sYSDe-7" value="" style="shape=curlyBracket;whiteSpace=wrap;html=1;rounded=1;flipH=1;labelPosition=right;verticalLabelPosition=middle;align=left;verticalAlign=middle;direction=north;size=0.5;strokeWidth=5;" parent="WIyWlLk6GJQsqaUBKTNV-1" vertex="1">
          <mxGeometry x="1458.2899999999997" y="440" width="112.46" height="22" as="geometry" />
        </mxCell>
        <mxCell id="Td7zW-o2DTwXKr2sYSDe-8" value="&lt;ul style=&quot;&quot;&gt;&lt;li style=&quot;&quot;&gt;&lt;font style=&quot;font-size: 20px;&quot;&gt;Deployments&lt;/font&gt;&lt;/li&gt;&lt;li style=&quot;&quot;&gt;&lt;span style=&quot;background-color: initial;&quot;&gt;&lt;font style=&quot;font-size: 20px;&quot;&gt;Services&lt;/font&gt;&lt;/span&gt;&lt;/li&gt;&lt;li style=&quot;&quot;&gt;&lt;span style=&quot;background-color: initial;&quot;&gt;&lt;font style=&quot;font-size: 20px;&quot;&gt;ConfigMap&lt;/font&gt;&lt;/span&gt;&lt;/li&gt;&lt;li style=&quot;&quot;&gt;&lt;span style=&quot;background-color: initial;&quot;&gt;&lt;font style=&quot;font-size: 20px;&quot;&gt;Secrets&lt;/font&gt;&lt;/span&gt;&lt;/li&gt;&lt;li style=&quot;&quot;&gt;&lt;span style=&quot;background-color: initial;&quot;&gt;&lt;font style=&quot;font-size: 20px;&quot;&gt;PVCs&lt;/font&gt;&lt;/span&gt;&lt;/li&gt;&lt;/ul&gt;" style="text;strokeColor=none;fillColor=none;html=1;whiteSpace=wrap;verticalAlign=middle;overflow=hidden;rounded=0;sketch=1;curveFitting=1;jiggle=2;fontSize=17;" parent="WIyWlLk6GJQsqaUBKTNV-1" vertex="1">
          <mxGeometry x="1429.62" y="462.5" width="165" height="158" as="geometry" />
        </mxCell>
        <mxCell id="Td7zW-o2DTwXKr2sYSDe-9" value="&lt;font style=&quot;font-size: 26px;&quot;&gt;Frontend Image&lt;/font&gt;" style="rounded=1;whiteSpace=wrap;html=1;sketch=1;curveFitting=1;jiggle=2;fillColor=#fa6800;strokeColor=#C73500;fontColor=#000000;" parent="WIyWlLk6GJQsqaUBKTNV-1" vertex="1">
          <mxGeometry x="683.33" y="502.25" width="196.67" height="69.75" as="geometry" />
        </mxCell>
        <mxCell id="Td7zW-o2DTwXKr2sYSDe-90" style="edgeStyle=orthogonalEdgeStyle;rounded=0;orthogonalLoop=1;jettySize=auto;html=1;exitX=0.5;exitY=1;exitDx=0;exitDy=0;strokeWidth=5;" parent="WIyWlLk6GJQsqaUBKTNV-1" source="_PzZQzh7Twu5nZZNjSZp-4" edge="1">
          <mxGeometry relative="1" as="geometry">
            <mxPoint x="1720.81" y="667.13" as="targetPoint" />
            <Array as="points">
              <mxPoint x="1031" y="667" />
            </Array>
            <mxPoint x="972.8099999999997" y="568.25" as="sourcePoint" />
          </mxGeometry>
        </mxCell>
        <mxCell id="Td7zW-o2DTwXKr2sYSDe-110" style="edgeStyle=orthogonalEdgeStyle;rounded=0;orthogonalLoop=1;jettySize=auto;html=1;endArrow=classic;endFill=1;jumpSize=0;startArrow=none;startFill=0;strokeWidth=5;" parent="WIyWlLk6GJQsqaUBKTNV-1" edge="1">
          <mxGeometry relative="1" as="geometry">
            <mxPoint x="1720.81" y="544.13" as="targetPoint" />
            <mxPoint x="1808.6499999999999" y="544.39" as="sourcePoint" />
            <Array as="points">
              <mxPoint x="1828.6499999999999" y="544.39" />
              <mxPoint x="1665.6499999999999" y="544.39" />
            </Array>
          </mxGeometry>
        </mxCell>
        <mxCell id="Td7zW-o2DTwXKr2sYSDe-11" value="&lt;font style=&quot;font-size: 30px;&quot;&gt;postgres:13&lt;/font&gt;" style="rounded=1;whiteSpace=wrap;html=1;sketch=1;curveFitting=1;jiggle=2;fillColor=#bac8d3;strokeColor=#23445d;" parent="WIyWlLk6GJQsqaUBKTNV-1" vertex="1">
          <mxGeometry x="1828.1" y="506" width="217.9" height="99" as="geometry" />
        </mxCell>
        <mxCell id="Td7zW-o2DTwXKr2sYSDe-13" value="" style="shape=curlyBracket;whiteSpace=wrap;html=1;rounded=1;flipH=1;labelPosition=right;verticalLabelPosition=middle;align=left;verticalAlign=middle;size=0.5;direction=east;" parent="WIyWlLk6GJQsqaUBKTNV-1" vertex="1">
          <mxGeometry x="2070.23" y="502.25" width="18.71" height="202.13" as="geometry" />
        </mxCell>
        <mxCell id="Td7zW-o2DTwXKr2sYSDe-15" value="&lt;font style=&quot;font-size: 24px;&quot;&gt;gets pulled from Docker Hub&amp;nbsp;&lt;/font&gt;" style="text;html=1;align=center;verticalAlign=middle;whiteSpace=wrap;rounded=0;fontSize=20;" parent="WIyWlLk6GJQsqaUBKTNV-1" vertex="1">
          <mxGeometry x="2099.82" y="572.31" width="347.19" height="62" as="geometry" />
        </mxCell>
        <mxCell id="Td7zW-o2DTwXKr2sYSDe-16" style="edgeStyle=orthogonalEdgeStyle;rounded=0;orthogonalLoop=1;jettySize=auto;html=1;exitX=0.407;exitY=0.924;exitDx=0;exitDy=0;exitPerimeter=0;endArrow=none;endFill=0;entryX=0.475;entryY=-0.02;entryDx=0;entryDy=0;entryPerimeter=0;strokeWidth=5;" parent="WIyWlLk6GJQsqaUBKTNV-1" source="Td7zW-o2DTwXKr2sYSDe-0" target="Td7zW-o2DTwXKr2sYSDe-9" edge="1">
          <mxGeometry relative="1" as="geometry">
            <mxPoint x="763.81" y="348.25" as="sourcePoint" />
            <mxPoint x="763.81" y="502.25" as="targetPoint" />
            <Array as="points">
              <mxPoint x="973" y="407" />
              <mxPoint x="973" y="436" />
              <mxPoint x="756" y="436" />
            </Array>
          </mxGeometry>
        </mxCell>
        <mxCell id="Td7zW-o2DTwXKr2sYSDe-20" value="" style="rounded=0;whiteSpace=wrap;html=1;movable=0;resizable=0;rotatable=0;deletable=0;editable=0;locked=1;connectable=0;" parent="WIyWlLk6GJQsqaUBKTNV-1" vertex="1">
          <mxGeometry x="637.9999999999999" y="957" width="1873.48" height="1815" as="geometry" />
        </mxCell>
        <mxCell id="Td7zW-o2DTwXKr2sYSDe-59" value="" style="rounded=0;whiteSpace=wrap;html=1;sketch=1;curveFitting=1;jiggle=2;glass=0;shadow=0;" parent="WIyWlLk6GJQsqaUBKTNV-1" vertex="1">
          <mxGeometry x="788.91" y="1210" width="363.19" height="286" as="geometry" />
        </mxCell>
        <mxCell id="Td7zW-o2DTwXKr2sYSDe-60" value="&lt;font style=&quot;font-size: 30px;&quot;&gt;Frontend deployment&lt;/font&gt;" style="text;strokeColor=none;fillColor=none;html=1;fontSize=20;fontStyle=1;verticalAlign=middle;align=center;" parent="WIyWlLk6GJQsqaUBKTNV-1" vertex="1">
          <mxGeometry x="833" y="1221" width="275" height="55" as="geometry" />
        </mxCell>
        <mxCell id="Td7zW-o2DTwXKr2sYSDe-61" style="edgeStyle=orthogonalEdgeStyle;rounded=0;orthogonalLoop=1;jettySize=auto;html=1;exitX=0.484;exitY=0.996;exitDx=0;exitDy=0;flowAnimation=0;strokeWidth=5;exitPerimeter=0;" parent="WIyWlLk6GJQsqaUBKTNV-1" source="Td7zW-o2DTwXKr2sYSDe-62" target="Td7zW-o2DTwXKr2sYSDe-65" edge="1">
          <mxGeometry relative="1" as="geometry">
            <Array as="points">
              <mxPoint x="968" y="1408" />
            </Array>
          </mxGeometry>
        </mxCell>
        <mxCell id="Td7zW-o2DTwXKr2sYSDe-62" value="" style="rounded=1;whiteSpace=wrap;html=1;dashed=1;glass=0;shadow=1;sketch=1;curveFitting=1;jiggle=2;fillColor=#8787FF;" parent="WIyWlLk6GJQsqaUBKTNV-1" vertex="1">
          <mxGeometry x="856.68" y="1298" width="232.32" height="110" as="geometry" />
        </mxCell>
        <mxCell id="Td7zW-o2DTwXKr2sYSDe-63" value="&lt;font style=&quot;font-size: 26px;&quot;&gt;Frontend pod&lt;/font&gt;" style="text;strokeColor=none;fillColor=none;html=1;fontSize=19;fontStyle=1;verticalAlign=middle;align=center;" parent="WIyWlLk6GJQsqaUBKTNV-1" vertex="1">
          <mxGeometry x="884.81" y="1324.81" width="160.19" height="49.5" as="geometry" />
        </mxCell>
        <mxCell id="Td7zW-o2DTwXKr2sYSDe-64" style="edgeStyle=orthogonalEdgeStyle;rounded=0;orthogonalLoop=1;jettySize=auto;html=1;exitX=1;exitY=0.5;exitDx=0;exitDy=0;flowAnimation=1;startArrow=classic;startFill=1;strokeWidth=5;" parent="WIyWlLk6GJQsqaUBKTNV-1" source="Td7zW-o2DTwXKr2sYSDe-65" target="Td7zW-o2DTwXKr2sYSDe-72" edge="1">
          <mxGeometry relative="1" as="geometry" />
        </mxCell>
        <mxCell id="Td7zW-o2DTwXKr2sYSDe-65" value="" style="rounded=1;whiteSpace=wrap;html=1;sketch=1;curveFitting=1;jiggle=2;fillColor=#fad7ac;strokeColor=#B46504;" parent="WIyWlLk6GJQsqaUBKTNV-1" vertex="1">
          <mxGeometry x="803" y="1595" width="297" height="264" as="geometry" />
        </mxCell>
        <mxCell id="Td7zW-o2DTwXKr2sYSDe-66" value="&lt;font style=&quot;font-size: 26px;&quot;&gt;Frontend service&lt;/font&gt;" style="text;strokeColor=none;fillColor=none;html=1;fontSize=20;fontStyle=1;verticalAlign=middle;align=center;" parent="WIyWlLk6GJQsqaUBKTNV-1" vertex="1">
          <mxGeometry x="815.5" y="1653.79" width="275" height="55" as="geometry" />
        </mxCell>
        <mxCell id="Td7zW-o2DTwXKr2sYSDe-67" value="&lt;font style=&quot;font-size: 26px;&quot;&gt;&lt;font style=&quot;&quot;&gt;localhost:&lt;/font&gt;&lt;span style=&quot;background-color: initial;&quot;&gt;4200&lt;/span&gt;&lt;/font&gt;" style="text;html=1;align=left;verticalAlign=middle;whiteSpace=wrap;rounded=0;fontSize=15;" parent="WIyWlLk6GJQsqaUBKTNV-1" vertex="1">
          <mxGeometry x="870.72" y="1721.5" width="164.56" height="55" as="geometry" />
        </mxCell>
        <mxCell id="Td7zW-o2DTwXKr2sYSDe-68" value="" style="rounded=0;whiteSpace=wrap;html=1;sketch=1;curveFitting=1;jiggle=2;" parent="WIyWlLk6GJQsqaUBKTNV-1" vertex="1">
          <mxGeometry x="1188" y="1210" width="330.19" height="286" as="geometry" />
        </mxCell>
        <mxCell id="Td7zW-o2DTwXKr2sYSDe-69" value="&lt;font style=&quot;font-size: 30px;&quot;&gt;API deployment&lt;/font&gt;" style="text;strokeColor=none;fillColor=none;html=1;fontSize=20;fontStyle=1;verticalAlign=middle;align=center;" parent="WIyWlLk6GJQsqaUBKTNV-1" vertex="1">
          <mxGeometry x="1215.6" y="1221" width="275" height="55" as="geometry" />
        </mxCell>
        <mxCell id="Td7zW-o2DTwXKr2sYSDe-70" value="" style="rounded=1;whiteSpace=wrap;html=1;dashed=1;glass=0;shadow=1;sketch=1;curveFitting=1;jiggle=2;fillColor=#8787FF;" parent="WIyWlLk6GJQsqaUBKTNV-1" vertex="1">
          <mxGeometry x="1237.59" y="1298" width="231" height="121" as="geometry" />
        </mxCell>
        <mxCell id="Td7zW-o2DTwXKr2sYSDe-71" value="&lt;font style=&quot;font-size: 26px;&quot;&gt;Backend pod&lt;/font&gt;" style="text;strokeColor=none;fillColor=none;html=1;fontSize=19;fontStyle=1;verticalAlign=middle;align=center;" parent="WIyWlLk6GJQsqaUBKTNV-1" vertex="1">
          <mxGeometry x="1270.37" y="1330.31" width="165.44" height="44" as="geometry" />
        </mxCell>
        <mxCell id="Td7zW-o2DTwXKr2sYSDe-72" value="" style="rounded=1;whiteSpace=wrap;html=1;sketch=1;curveFitting=1;jiggle=2;fillColor=#FAD7AC;strokeColor=#B46504;" parent="WIyWlLk6GJQsqaUBKTNV-1" vertex="1">
          <mxGeometry x="1192.55" y="1595" width="292.45" height="264" as="geometry" />
        </mxCell>
        <mxCell id="Td7zW-o2DTwXKr2sYSDe-73" value="&lt;font style=&quot;font-size: 26px;&quot;&gt;API service&lt;/font&gt;" style="text;strokeColor=none;fillColor=none;html=1;fontSize=20;fontStyle=1;verticalAlign=middle;align=center;" parent="WIyWlLk6GJQsqaUBKTNV-1" vertex="1">
          <mxGeometry x="1201.2799999999997" y="1653.7900000000002" width="275" height="55" as="geometry" />
        </mxCell>
        <mxCell id="Td7zW-o2DTwXKr2sYSDe-74" value="&lt;font style=&quot;font-size: 26px;&quot;&gt;localhost:&lt;span style=&quot;background-color: initial;&quot;&gt;9101&lt;/span&gt;&lt;/font&gt;" style="text;html=1;align=left;verticalAlign=middle;whiteSpace=wrap;rounded=0;fontSize=18;" parent="WIyWlLk6GJQsqaUBKTNV-1" vertex="1">
          <mxGeometry x="1253.82" y="1721.5" width="169.93" height="55" as="geometry" />
        </mxCell>
        <mxCell id="Td7zW-o2DTwXKr2sYSDe-75" style="edgeStyle=orthogonalEdgeStyle;rounded=0;orthogonalLoop=1;jettySize=auto;html=1;flowAnimation=0;strokeWidth=5;" parent="WIyWlLk6GJQsqaUBKTNV-1" source="Td7zW-o2DTwXKr2sYSDe-70" edge="1">
          <mxGeometry relative="1" as="geometry">
            <mxPoint x="1320" y="1413" as="sourcePoint" />
            <mxPoint x="1326" y="1595" as="targetPoint" />
            <Array as="points">
              <mxPoint x="1326" y="1595" />
            </Array>
          </mxGeometry>
        </mxCell>
        <mxCell id="Td7zW-o2DTwXKr2sYSDe-76" value="" style="rounded=0;whiteSpace=wrap;html=1;sketch=1;curveFitting=1;jiggle=2;" parent="WIyWlLk6GJQsqaUBKTNV-1" vertex="1">
          <mxGeometry x="1550.71" y="1206.56" width="363.19" height="286" as="geometry" />
        </mxCell>
        <mxCell id="Td7zW-o2DTwXKr2sYSDe-77" value="&lt;font style=&quot;font-size: 30px;&quot;&gt;Database deployment&lt;/font&gt;" style="text;strokeColor=none;fillColor=none;html=1;fontSize=20;fontStyle=1;verticalAlign=middle;align=center;" parent="WIyWlLk6GJQsqaUBKTNV-1" vertex="1">
          <mxGeometry x="1594.81" y="1221" width="275" height="55" as="geometry" />
        </mxCell>
        <mxCell id="Td7zW-o2DTwXKr2sYSDe-78" value="" style="rounded=1;whiteSpace=wrap;html=1;dashed=1;glass=0;shadow=1;sketch=1;curveFitting=1;jiggle=2;fillColor=#8787FF;" parent="WIyWlLk6GJQsqaUBKTNV-1" vertex="1">
          <mxGeometry x="1602" y="1298" width="242.88" height="121" as="geometry" />
        </mxCell>
        <mxCell id="Td7zW-o2DTwXKr2sYSDe-79" value="&lt;font style=&quot;font-size: 26px;&quot;&gt;Database pod&lt;/font&gt;" style="text;strokeColor=none;fillColor=none;html=1;fontSize=19;fontStyle=1;verticalAlign=middle;align=center;" parent="WIyWlLk6GJQsqaUBKTNV-1" vertex="1">
          <mxGeometry x="1640.7600000000002" y="1333.75" width="165.35" height="37.12" as="geometry" />
        </mxCell>
        <mxCell id="Td7zW-o2DTwXKr2sYSDe-80" value="" style="shape=cylinder3;whiteSpace=wrap;html=1;boundedLbl=1;backgroundOutline=1;size=15;sketch=1;curveFitting=1;jiggle=2;fillColor=#fad9d5;strokeColor=#ae4132;" parent="WIyWlLk6GJQsqaUBKTNV-1" vertex="1">
          <mxGeometry x="1577.06" y="1879.63" width="292.75" height="319" as="geometry" />
        </mxCell>
        <mxCell id="Td7zW-o2DTwXKr2sYSDe-81" value="&lt;font style=&quot;font-size: 26px;&quot;&gt;Postgres service&lt;/font&gt;" style="text;strokeColor=none;fillColor=none;html=1;fontSize=20;fontStyle=1;verticalAlign=middle;align=center;" parent="WIyWlLk6GJQsqaUBKTNV-1" vertex="1">
          <mxGeometry x="1594.81" y="1991" width="275" height="55" as="geometry" />
        </mxCell>
        <mxCell id="Td7zW-o2DTwXKr2sYSDe-83" style="edgeStyle=orthogonalEdgeStyle;rounded=0;orthogonalLoop=1;jettySize=auto;html=1;entryX=0;entryY=0.5;entryDx=0;entryDy=0;entryPerimeter=0;flowAnimation=1;exitX=0.5;exitY=1;exitDx=0;exitDy=0;startArrow=classic;startFill=1;strokeWidth=5;" parent="WIyWlLk6GJQsqaUBKTNV-1" source="Td7zW-o2DTwXKr2sYSDe-72" target="Td7zW-o2DTwXKr2sYSDe-80" edge="1">
          <mxGeometry relative="1" as="geometry" />
        </mxCell>
        <mxCell id="Td7zW-o2DTwXKr2sYSDe-84" value="&lt;font style=&quot;font-size: 39px;&quot;&gt;K3s cluster&lt;/font&gt;" style="text;strokeColor=default;fillColor=none;html=1;fontSize=28;fontStyle=1;verticalAlign=middle;align=center;rounded=0;sketch=1;curveFitting=1;jiggle=2;" parent="WIyWlLk6GJQsqaUBKTNV-1" vertex="1">
          <mxGeometry x="638" y="847" width="286" height="77" as="geometry" />
        </mxCell>
        <mxCell id="Td7zW-o2DTwXKr2sYSDe-91" style="edgeStyle=orthogonalEdgeStyle;rounded=0;orthogonalLoop=1;jettySize=auto;html=1;exitX=0.5;exitY=1;exitDx=0;exitDy=0;strokeWidth=5;" parent="WIyWlLk6GJQsqaUBKTNV-1" edge="1">
          <mxGeometry relative="1" as="geometry">
            <mxPoint x="758.5600000000001" y="573.25" as="sourcePoint" />
            <mxPoint x="1720.81" y="667.13" as="targetPoint" />
            <Array as="points">
              <mxPoint x="758.16" y="667.25" />
            </Array>
          </mxGeometry>
        </mxCell>
        <mxCell id="Td7zW-o2DTwXKr2sYSDe-92" value="" style="rounded=0;whiteSpace=wrap;html=1;sketch=1;curveFitting=1;jiggle=2;" parent="WIyWlLk6GJQsqaUBKTNV-1" vertex="1">
          <mxGeometry x="1972.88" y="1210" width="359.12" height="286" as="geometry" />
        </mxCell>
        <mxCell id="Td7zW-o2DTwXKr2sYSDe-93" value="&lt;font style=&quot;font-size: 30px;&quot;&gt;Adminer deployment&lt;/font&gt;" style="text;strokeColor=none;fillColor=none;html=1;fontSize=20;fontStyle=1;verticalAlign=middle;align=center;" parent="WIyWlLk6GJQsqaUBKTNV-1" vertex="1">
          <mxGeometry x="2014.9399999999996" y="1221" width="275" height="55" as="geometry" />
        </mxCell>
        <mxCell id="Td7zW-o2DTwXKr2sYSDe-94" value="" style="rounded=1;whiteSpace=wrap;html=1;dashed=1;glass=0;shadow=1;sketch=1;curveFitting=1;jiggle=2;fillColor=#8787FF;" parent="WIyWlLk6GJQsqaUBKTNV-1" vertex="1">
          <mxGeometry x="2041.67" y="1299.37" width="207.56" height="118.25" as="geometry" />
        </mxCell>
        <mxCell id="Td7zW-o2DTwXKr2sYSDe-95" value="&lt;font style=&quot;font-size: 26px;&quot;&gt;Adminer pod&lt;/font&gt;" style="text;strokeColor=none;fillColor=none;html=1;fontSize=19;fontStyle=1;verticalAlign=middle;align=center;" parent="WIyWlLk6GJQsqaUBKTNV-1" vertex="1">
          <mxGeometry x="2070.23" y="1333.75" width="163.31" height="38.5" as="geometry" />
        </mxCell>
        <mxCell id="Td7zW-o2DTwXKr2sYSDe-96" value="&lt;div style=&quot;&quot;&gt;&lt;font style=&quot;font-size: 26px;&quot;&gt;port: 5432&lt;/font&gt;&lt;/div&gt;" style="text;html=1;align=left;verticalAlign=middle;whiteSpace=wrap;rounded=0;fontSize=18;" parent="WIyWlLk6GJQsqaUBKTNV-1" vertex="1">
          <mxGeometry x="1658.13" y="2046" width="130.61" height="55" as="geometry" />
        </mxCell>
        <mxCell id="Td7zW-o2DTwXKr2sYSDe-97" value="" style="rounded=1;whiteSpace=wrap;html=1;sketch=1;curveFitting=1;jiggle=2;fillColor=#b0e3e6;strokeColor=#0e8088;" parent="WIyWlLk6GJQsqaUBKTNV-1" vertex="1">
          <mxGeometry x="2020.52" y="1620.44" width="265.19" height="253" as="geometry" />
        </mxCell>
        <mxCell id="Td7zW-o2DTwXKr2sYSDe-99" value="&lt;font style=&quot;font-size: 26px;&quot;&gt;Adminer service&lt;/font&gt;" style="text;strokeColor=none;fillColor=none;html=1;fontSize=20;fontStyle=1;verticalAlign=middle;align=center;" parent="WIyWlLk6GJQsqaUBKTNV-1" vertex="1">
          <mxGeometry x="2057" y="1683" width="192.23" height="46.05" as="geometry" />
        </mxCell>
        <mxCell id="Td7zW-o2DTwXKr2sYSDe-109" style="edgeStyle=orthogonalEdgeStyle;rounded=0;orthogonalLoop=1;jettySize=auto;html=1;endArrow=classic;endFill=1;exitX=0;exitY=0.5;exitDx=0;exitDy=0;strokeWidth=5;" parent="WIyWlLk6GJQsqaUBKTNV-1" source="Td7zW-o2DTwXKr2sYSDe-101" edge="1">
          <mxGeometry relative="1" as="geometry">
            <mxPoint x="1720.81" y="667.13" as="targetPoint" />
            <Array as="points">
              <mxPoint x="1828.6699999999998" y="667.13" />
            </Array>
            <mxPoint x="1914.2799999999997" y="605.8944827586207" as="sourcePoint" />
          </mxGeometry>
        </mxCell>
        <mxCell id="Td7zW-o2DTwXKr2sYSDe-101" value="&lt;font style=&quot;font-size: 30px;&quot;&gt;adminer:latest&lt;/font&gt;" style="rounded=1;whiteSpace=wrap;html=1;sketch=1;curveFitting=1;jiggle=2;fillColor=#bac8d3;strokeColor=#23445d;" parent="WIyWlLk6GJQsqaUBKTNV-1" vertex="1">
          <mxGeometry x="1833.6" y="620.5" width="212.4" height="94.5" as="geometry" />
        </mxCell>
        <mxCell id="Td7zW-o2DTwXKr2sYSDe-105" style="edgeStyle=orthogonalEdgeStyle;rounded=0;orthogonalLoop=1;jettySize=auto;html=1;exitX=0.5;exitY=1;exitDx=0;exitDy=0;" parent="WIyWlLk6GJQsqaUBKTNV-1" edge="1">
          <mxGeometry relative="1" as="geometry">
            <mxPoint x="806.0599999999998" y="956.5" as="sourcePoint" />
            <mxPoint x="806.0599999999998" y="956.5" as="targetPoint" />
          </mxGeometry>
        </mxCell>
        <mxCell id="Td7zW-o2DTwXKr2sYSDe-114" value="&lt;pre style=&quot;&quot;&gt;&lt;b style=&quot;&quot;&gt;&lt;font style=&quot;font-size: 27px;&quot;&gt;CMD: skaffold dev&lt;/font&gt;&lt;/b&gt;&lt;/pre&gt;" style="text;html=1;align=center;verticalAlign=middle;whiteSpace=wrap;rounded=0;fontFamily=Helvetica;fontSize=22;strokeColor=default;fontStyle=0;spacingBottom=0;spacingRight=0;horizontal=1;sketch=1;curveFitting=1;jiggle=2;" parent="WIyWlLk6GJQsqaUBKTNV-1" vertex="1">
          <mxGeometry x="1078" y="429" width="308" height="44" as="geometry" />
        </mxCell>
        <mxCell id="Td7zW-o2DTwXKr2sYSDe-121" style="edgeStyle=orthogonalEdgeStyle;rounded=0;orthogonalLoop=1;jettySize=auto;html=1;flowAnimation=0;strokeWidth=5;" parent="WIyWlLk6GJQsqaUBKTNV-1" edge="1">
          <mxGeometry relative="1" as="geometry">
            <mxPoint x="2152" y="1419" as="sourcePoint" />
            <mxPoint x="2152" y="1615" as="targetPoint" />
            <Array as="points">
              <mxPoint x="2152" y="1615" />
            </Array>
          </mxGeometry>
        </mxCell>
        <mxCell id="Td7zW-o2DTwXKr2sYSDe-122" style="edgeStyle=orthogonalEdgeStyle;rounded=0;orthogonalLoop=1;jettySize=auto;html=1;exitX=0.5;exitY=1;exitDx=0;exitDy=0;strokeWidth=5;" parent="WIyWlLk6GJQsqaUBKTNV-1" source="Td7zW-o2DTwXKr2sYSDe-97" target="Td7zW-o2DTwXKr2sYSDe-80" edge="1">
          <mxGeometry relative="1" as="geometry">
            <mxPoint x="1908.31" y="1704.63" as="sourcePoint" />
            <mxPoint x="1872.31" y="2099.63" as="targetPoint" />
            <Array as="points">
              <mxPoint x="2153" y="2040" />
            </Array>
          </mxGeometry>
        </mxCell>
        <mxCell id="Td7zW-o2DTwXKr2sYSDe-153" value=" kubectl port-forward svc/adminer 8081:8080" style="edgeLabel;align=center;verticalAlign=middle;resizable=0;points=[];fontSize=21;" parent="Td7zW-o2DTwXKr2sYSDe-122" vertex="1" connectable="0">
          <mxGeometry x="-0.3947" y="6" relative="1" as="geometry">
            <mxPoint y="1" as="offset" />
          </mxGeometry>
        </mxCell>
        <mxCell id="Td7zW-o2DTwXKr2sYSDe-124" value="&lt;div style=&quot;&quot;&gt;&lt;font style=&quot;font-size: 26px;&quot;&gt;localhost:8081&lt;/font&gt;&lt;/div&gt;" style="text;html=1;align=left;verticalAlign=middle;whiteSpace=wrap;rounded=0;fontSize=18;" parent="WIyWlLk6GJQsqaUBKTNV-1" vertex="1">
          <mxGeometry x="2070.23" y="1738" width="165.77" height="50.87" as="geometry" />
        </mxCell>
        <mxCell id="Td7zW-o2DTwXKr2sYSDe-128" value="" style="rounded=1;whiteSpace=wrap;html=1;sketch=1;curveFitting=1;jiggle=2;" parent="WIyWlLk6GJQsqaUBKTNV-1" vertex="1">
          <mxGeometry x="1977.68" y="2387" width="316.71" height="308" as="geometry" />
        </mxCell>
        <mxCell id="Td7zW-o2DTwXKr2sYSDe-129" value="" style="rounded=1;whiteSpace=wrap;html=1;strokeWidth=2;fillWeight=4;hachureGap=8;hachureAngle=45;fillColor=#FAD7AC;sketch=1;strokeColor=#B46504;" parent="WIyWlLk6GJQsqaUBKTNV-1" vertex="1">
          <mxGeometry x="2019.39" y="2482" width="80.43" height="33" as="geometry" />
        </mxCell>
        <mxCell id="Td7zW-o2DTwXKr2sYSDe-130" value="LoadBalancer" style="text;strokeColor=none;fillColor=none;html=1;fontSize=21;fontStyle=1;verticalAlign=middle;align=center;" parent="WIyWlLk6GJQsqaUBKTNV-1" vertex="1">
          <mxGeometry x="2128.43" y="2477.44" width="139.48" height="42.12" as="geometry" />
        </mxCell>
        <mxCell id="Td7zW-o2DTwXKr2sYSDe-131" value="Service type" style="text;strokeColor=none;fillColor=none;html=1;fontSize=24;fontStyle=1;verticalAlign=middle;align=center;" parent="WIyWlLk6GJQsqaUBKTNV-1" vertex="1">
          <mxGeometry x="2019.39" y="2409" width="132" height="40" as="geometry" />
        </mxCell>
        <mxCell id="Td7zW-o2DTwXKr2sYSDe-133" value="" style="rounded=1;whiteSpace=wrap;html=1;strokeWidth=2;fillWeight=4;hachureGap=8;hachureAngle=45;fillColor=#FAD9D5;sketch=1;strokeColor=#ae4132;" parent="WIyWlLk6GJQsqaUBKTNV-1" vertex="1">
          <mxGeometry x="2019.39" y="2541" width="80.43" height="33" as="geometry" />
        </mxCell>
        <mxCell id="Td7zW-o2DTwXKr2sYSDe-134" value="ClusterIP" style="text;strokeColor=none;fillColor=none;html=1;fontSize=21;fontStyle=1;verticalAlign=middle;align=center;" parent="WIyWlLk6GJQsqaUBKTNV-1" vertex="1">
          <mxGeometry x="2126.1" y="2539.13" width="91.23" height="36.24" as="geometry" />
        </mxCell>
        <mxCell id="Td7zW-o2DTwXKr2sYSDe-136" value="" style="rounded=1;whiteSpace=wrap;html=1;strokeWidth=2;fillWeight=4;hachureGap=8;hachureAngle=45;fillColor=#b0e3e6;sketch=1;strokeColor=#0e8088;" parent="WIyWlLk6GJQsqaUBKTNV-1" vertex="1">
          <mxGeometry x="2019.39" y="2603.5" width="80.43" height="33" as="geometry" />
        </mxCell>
        <mxCell id="Td7zW-o2DTwXKr2sYSDe-137" value="NodePort" style="text;strokeColor=none;fillColor=none;html=1;fontSize=21;fontStyle=1;verticalAlign=middle;align=center;rotation=0;" parent="WIyWlLk6GJQsqaUBKTNV-1" vertex="1">
          <mxGeometry x="2122.46" y="2599.75" width="98.51" height="40.5" as="geometry" />
        </mxCell>
        <mxCell id="_PzZQzh7Twu5nZZNjSZp-39" value="" style="rounded=0;whiteSpace=wrap;html=1;sketch=1;curveFitting=1;jiggle=2;" parent="WIyWlLk6GJQsqaUBKTNV-1" vertex="1">
          <mxGeometry x="826.49" y="1012" width="1496" height="121" as="geometry" />
        </mxCell>
        <mxCell id="Td7zW-o2DTwXKr2sYSDe-147" value="" style="edgeStyle=orthogonalEdgeStyle;rounded=0;orthogonalLoop=1;jettySize=auto;html=1;flowAnimation=0;strokeWidth=5;entryX=0;entryY=0.5;entryDx=0;entryDy=0;entryPerimeter=0;" parent="WIyWlLk6GJQsqaUBKTNV-1" target="Td7zW-o2DTwXKr2sYSDe-142" edge="1">
          <mxGeometry relative="1" as="geometry">
            <mxPoint x="1722" y="1419" as="sourcePoint" />
            <mxPoint x="1661" y="1706.35" as="targetPoint" />
            <Array as="points">
              <mxPoint x="1722" y="1706" />
              <mxPoint x="1771" y="1706" />
            </Array>
          </mxGeometry>
        </mxCell>
        <mxCell id="Td7zW-o2DTwXKr2sYSDe-142" value="&lt;font style=&quot;font-size: 26px;&quot;&gt;PV of 1GB&lt;/font&gt;" style="shape=cylinder3;whiteSpace=wrap;html=1;boundedLbl=1;backgroundOutline=1;size=15;sketch=1;curveFitting=1;jiggle=2;fillColor=#ffcccc;strokeColor=#36393d;" parent="WIyWlLk6GJQsqaUBKTNV-1" vertex="1">
          <mxGeometry x="1793" y="1626.28" width="164.85" height="159.5" as="geometry" />
        </mxCell>
        <mxCell id="Td7zW-o2DTwXKr2sYSDe-148" value="" style="edgeStyle=orthogonalEdgeStyle;rounded=0;orthogonalLoop=1;jettySize=auto;html=1;flowAnimation=0;strokeWidth=5;" parent="WIyWlLk6GJQsqaUBKTNV-1" edge="1">
          <mxGeometry relative="1" as="geometry">
            <mxPoint x="1721" y="1419" as="sourcePoint" />
            <mxPoint x="1720.6800000000003" y="1879.63" as="targetPoint" />
            <Array as="points">
              <mxPoint x="1720.88" y="1760" />
              <mxPoint x="1720.88" y="1760" />
            </Array>
          </mxGeometry>
        </mxCell>
        <mxCell id="_PzZQzh7Twu5nZZNjSZp-4" value="&lt;font style=&quot;font-size: 26px;&quot;&gt;API Image&lt;/font&gt;" style="rounded=1;whiteSpace=wrap;html=1;sketch=1;curveFitting=1;jiggle=2;fillColor=#fa6800;strokeColor=#C73500;fontColor=#000000;" parent="WIyWlLk6GJQsqaUBKTNV-1" vertex="1">
          <mxGeometry x="935" y="506" width="192.69" height="66" as="geometry" />
        </mxCell>
        <mxCell id="_PzZQzh7Twu5nZZNjSZp-7" value="&lt;pre&gt;&lt;font style=&quot;font-size: 25px;&quot;&gt;&lt;font style=&quot;&quot;&gt;k3d cluster start mycluster&lt;/font&gt;&amp;nbsp;&lt;/font&gt;&lt;/pre&gt;" style="text;strokeColor=none;fillColor=none;html=1;fontSize=24;fontStyle=1;verticalAlign=middle;align=left;" parent="WIyWlLk6GJQsqaUBKTNV-1" vertex="1">
          <mxGeometry x="909.7099999999998" y="1078" width="903.33" height="33" as="geometry" />
        </mxCell>
        <mxCell id="_PzZQzh7Twu5nZZNjSZp-10" value="&lt;font style=&quot;font-size: 18px;&quot;&gt;&lt;b&gt;CMD:&lt;/b&gt;&lt;/font&gt;" style="text;html=1;align=center;verticalAlign=middle;whiteSpace=wrap;rounded=0;" parent="WIyWlLk6GJQsqaUBKTNV-1" vertex="1">
          <mxGeometry x="849.02" y="1034" width="47.29" height="30" as="geometry" />
        </mxCell>
        <mxCell id="_PzZQzh7Twu5nZZNjSZp-11" value="&lt;font size=&quot;1&quot; style=&quot;&quot;&gt;&lt;b style=&quot;font-size: 18px;&quot;&gt;CMD:&lt;/b&gt;&lt;/font&gt;" style="text;html=1;align=center;verticalAlign=middle;whiteSpace=wrap;rounded=0;" parent="WIyWlLk6GJQsqaUBKTNV-1" vertex="1">
          <mxGeometry x="849.02" y="1081" width="49" height="30" as="geometry" />
        </mxCell>
        <mxCell id="Td7zW-o2DTwXKr2sYSDe-58" value="&lt;pre&gt;&lt;font style=&quot;font-size: 25px;&quot;&gt;&lt;font style=&quot;&quot;&gt;k3d cluster create mycluster --port &quot;4200:4200@loadbalancer&quot; --port &quot;9101:9101@loadbalancer&quot;&amp;nbsp;&lt;/font&gt;&amp;nbsp;&lt;/font&gt;&lt;/pre&gt;" style="text;strokeColor=none;fillColor=none;html=1;fontSize=24;fontStyle=1;verticalAlign=middle;align=center;" parent="WIyWlLk6GJQsqaUBKTNV-1" vertex="1">
          <mxGeometry x="909.71" y="1030.5" width="1422.29" height="36.5" as="geometry" />
        </mxCell>
        <mxCell id="r-hm1BnCjYRCYzWh4RcD-0" value="&lt;font style=&quot;font-size: 43px;&quot;&gt;&lt;b&gt;K3s cluster architecture&lt;/b&gt;&lt;/font&gt;" style="shape=hexagon;perimeter=hexagonPerimeter2;whiteSpace=wrap;html=1;fixedSize=1;" parent="WIyWlLk6GJQsqaUBKTNV-1" vertex="1">
          <mxGeometry x="1197.74" y="55" width="749.26" height="132" as="geometry" />
        </mxCell>
      </root>
    </mxGraphModel>
  </diagram>
</mxfile>
